<?xml version="1.0" encoding="UTF-8" standalone="no"?>
<!-- Generator: Adobe Illustrator 12.0.0, SVG Export Plug-In . SVG Version: 6.00 Build 51448)  -->

<svg
   xmlns:dc="http://purl.org/dc/elements/1.1/"
   xmlns:cc="http://creativecommons.org/ns#"
   xmlns:rdf="http://www.w3.org/1999/02/22-rdf-syntax-ns#"
   xmlns:svg="http://www.w3.org/2000/svg"
   xmlns="http://www.w3.org/2000/svg"
   xmlns:sodipodi="http://sodipodi.sourceforge.net/DTD/sodipodi-0.dtd"
   xmlns:inkscape="http://www.inkscape.org/namespaces/inkscape"
   height="300"
   id="Layer_1"
   inkscape:version="0.48.3.1 r9886"
   sodipodi:docname="rabbit.svg"
   sodipodi:version="0.32"
   space="preserve"
   style="overflow:visible"
   version="1.1"
   viewBox="0 0 300 299.99999"
   width="300"
   inkscape:output_extension="org.inkscape.output.svg.inkscape">
  <metadata
     id="metadata3">
    <rdf:RDF>
      <cc:Work
         rdf:about="">
        <dc:title></dc:title>
        <dc:description />
        <dc:subject>
          <rdf:Bag>
            <rdf:li>animal</rdf:li>
            <rdf:li>rabbit</rdf:li>
            <rdf:li>bunny</rdf:li>
            <rdf:li>mammal</rdf:li>
          </rdf:Bag>
        </dc:subject>
        <dc:publisher>
          <cc:Agent
             rdf:about="http://www.openclipart.org/">
            <dc:title>Open Clip Art Library</dc:title>
          </cc:Agent>
        </dc:publisher>
        <dc:creator>
          <cc:Agent>
            <dc:title>Architetto Francesco Rollandin</dc:title>
          </cc:Agent>
        </dc:creator>
        <dc:rights>
          <cc:Agent>
            <dc:title>Architetto Francesco Rollandin</dc:title>
          </cc:Agent>
        </dc:rights>
        <dc:date />
        <dc:format>image/svg+xml</dc:format>
        <dc:type
           rdf:resource="http://purl.org/dc/dcmitype/StillImage" />
        <cc:license
           rdf:resource="http://web.resource.org/cc/PublicDomain" />
        <dc:language>en</dc:language>
      </cc:Work>
      <cc:License
         rdf:about="http://web.resource.org/cc/PublicDomain">
        <cc:permits
           rdf:resource="http://web.resource.org/cc/Reproduction" />
        <cc:permits
           rdf:resource="http://web.resource.org/cc/Distribution" />
        <cc:permits
           rdf:resource="http://web.resource.org/cc/DerivativeWorks" />
      </cc:License>
    </rdf:RDF>
  </metadata>
  <defs
     id="defs168" />
  <sodipodi:namedview
     bordercolor="#666666"
     borderopacity="1.0"
     id="base"
     inkscape:current-layer="Layer_1"
     inkscape:cx="147.64409"
     inkscape:cy="157.14361"
     inkscape:pageopacity="0.0"
     inkscape:pageshadow="2"
     inkscape:window-height="744"
     inkscape:window-width="1301"
     inkscape:window-x="65"
     inkscape:window-y="24"
     inkscape:zoom="1.3103908"
     pagecolor="#ffffff"
     showgrid="false"
     inkscape:window-maximized="1"
     fit-margin-top="0"
     fit-margin-left="0"
     fit-margin-right="0"
     fit-margin-bottom="0" />
  <rect
     style="fill:#ffffff;stroke:#000000;stroke-width:4.17763804999999966;stroke-linecap:round;stroke-linejoin:round;stroke-miterlimit:4;stroke-opacity:1;stroke-dasharray:none;stroke-dashoffset:0"
     id="rect3069"
     width="295.82236"
     height="295.82236"
     x="2.088819"
     y="2.0888145"
     ry="0" />
  <g
     id="g3839"
     transform="translate(-58.183786,-17.275016)">
    <path
       inkscape:connector-curvature="0"
       style="fill-rule:evenodd"
       id="path3"
       d="m 261.06573,293.10428 c 3.32284,-1.54676 7.73316,-1.66448 11.75548,-1.61342 5.35818,0.0681 8.40513,-1.04678 12.97656,-2.2588 5.85693,-1.55243 18.83952,-1.59002 9.16031,-9.84082 -5.80189,-4.94594 -15.23407,-1.46946 -21.37362,-5.16296 -4.95204,-2.97863 -10.93652,-19.04549 -10.38137,-23.55386 1.08345,-8.80114 2.46696,-1.28365 4.58015,-2.90345 0.82031,-0.62835 2.64553,-7.64515 3.66386,-8.87419 4.68958,-5.66081 5.72805,-11.25851 9.77051,-17.90723 4.82517,-7.93663 10.63848,-15.32505 18.77844,-21.94115 5.02857,-4.08711 10.71299,-6.45512 12.51874,-13.38965 0.32825,-1.26095 -0.29335,-3.29777 0.15238,-4.67928 1.64262,-5.09488 0.098,-2.98218 4.88492,-4.51688 14.14525,-4.5339 37.92944,-5.95017 25.03747,-30.16855 -5.30246,-9.9621 -14.75612,-19.75966 -20.30427,-28.55513 -6.51747,-10.33017 -13.57264,-11.97692 -24.73271,-15.00165 -11.58028,-3.1382 -16.75452,-10.578389 -18.93015,-21.779453 -2.41863,-12.450669 -7.00751,-21.283723 -16.94651,-30.329535 -6.55641,-5.967187 -17.9776,-16.652664 -19.99883,-2.258793 -0.58133,4.141003 3.76858,14.760524 1.83193,17.907233 -2.36157,3.83534 -13.76195,-0.24751 -18.01385,-0.967345 -10.47737,-1.774412 -16.29201,2.563039 -12.06092,14.357701 1.407,3.921152 4.02165,5.510464 6.56446,8.389096 3.4665,3.924698 4.94668,8.156479 7.7862,12.583996 3.9995,6.23527 9.62216,11.16277 16.33497,13.71304 2.1273,0.80778 9.91014,1.72619 9.77051,4.51688 -0.29603,5.93386 -19.23625,6.83525 -22.89944,7.74373 -3.43696,0.85245 -7.69557,5.58067 -10.83919,5.80762 -2.16421,0.15673 -8.01443,-3.29494 -11.75481,-3.38784 -11.58834,-0.28652 -28.41738,1.13613 -39.38814,4.67857 -5.94554,1.9198 -11.93204,6.13031 -17.55604,8.22811 -5.26889,1.96519 -11.0889,3.02898 -16.18259,5.96932 -15.17366,8.75717 -19.21276,20.62275 -27.78503,35.65277 -7.824462,13.71943 -11.043259,33.63653 -13.511563,49.20554 -1.124397,7.0941 0.923684,13.70949 0.229579,19.68235 -0.753178,6.48136 -4.015609,4.37078 -9.618128,6.77567 -3.95385,1.69711 -12.164971,6.24094 -13.89285,11.13156 -1.848711,5.23175 0.82232,1.81626 3.053661,4.51617 1.686932,2.04107 2.272289,4.60695 3.817581,5.97074 1.778897,1.57016 3.912231,1.20776 6.106651,2.74175 2.238725,1.5652 3.882024,5.01899 7.327714,5.48423 3.098637,0.41913 5.314539,-0.12411 8.854208,-0.80636 4.341847,-0.83685 8.689077,-0.90139 13.435707,-2.90416 7.43512,-3.13749 10.61968,-2.05171 19.15839,-1.04891 12.61741,1.48152 25.71278,4.43603 38.39598,3.79066 6.27447,-0.31914 8.21716,-0.75033 14.65543,1.29216 12.87518,4.08427 27.68903,5.50692 39.999,1.93469 13.61427,-3.95094 -4.66742,-10.46562 -5.34407,-17.26186 -0.0228,-0.23333 3.04829,-6.0069 3.5108,-6.45299 2.81133,-2.70842 3.48261,-2.20348 6.41276,2.41978 3.39333,5.35586 4.26465,12.27195 8.24334,16.45551 4.83658,5.08778 16.37391,6.1537 22.74639,6.61539" />
    <path
       inkscape:connector-curvature="0"
       style="fill-rule:evenodd"
       id="path11"
       d="m 184.12205,276.97075 c 6.20734,-4.35447 -13.08194,-0.69572 0,0" />
    <path
       inkscape:connector-curvature="0"
       style="fill-rule:evenodd"
       id="path13"
       d="m 112.67416,279.39124 c 2.3609,-0.85104 12.09046,-9.56636 7.93858,-9.19687 -1.44326,0.12907 -11.91458,7.73592 -7.93858,9.19687" />
    <path
       inkscape:connector-curvature="0"
       style="fill-rule:evenodd"
       id="path15"
       d="m 111.91091,275.51902 c 1.80508,-0.71274 6.08651,-6.05158 2.59518,-5.80761 -1.7111,0.11914 -5.95763,5.01402 -2.59518,5.80761" />
    <path
       inkscape:connector-curvature="0"
       style="fill-rule:evenodd"
       id="path17"
       d="m 206.86911,267.61431 c 1.30296,-0.27304 4.35662,-4.23036 1.52716,-4.19419 -1.72855,0.022 -3.02681,3.30982 -1.52716,4.19419" />
    <path
       inkscape:connector-curvature="0"
       style="fill-rule:evenodd"
       id="path19"
       d="m 109.77355,270.84116 c 2.26155,-4.03817 -2.70862,-2.44815 0,0" />
    <path
       inkscape:connector-curvature="0"
       style="fill-rule:evenodd"
       id="path21"
       d="m 206.10586,262.28966 c 0.63973,-2.60418 -0.91764,-2.10136 0,0" />
    <path
       inkscape:connector-curvature="0"
       style="fill-rule:evenodd"
       id="path23"
       d="m 107.1777,267.29162 c 0.0181,-1.37158 0.83575,-2.22758 -1.52582,-2.41978 -0.25375,1.99639 0.65584,1.63328 1.52582,2.41978" />
    <path
       inkscape:connector-curvature="0"
       style="fill-rule:evenodd"
       id="path25"
       d="m 204.88346,257.45009 c 1.46339,-2.80275 -0.98343,-2.49992 0,0" />
    <path
       inkscape:connector-curvature="0"
       style="fill-rule:evenodd"
       id="path27"
       d="m 104.43015,260.19327 c -0.43164,-0.817 0.84447,-1.75456 -1.06869,-1.61343 -0.30006,1.71272 0.71291,0.9404 1.06869,1.61343" />
    <path
       inkscape:connector-curvature="0"
       style="fill-rule:evenodd"
       id="path29"
       d="m 203.81612,254.06297 c 1.22912,-2.69141 -1.55469,-2.14249 0,0" />
    <path
       inkscape:connector-curvature="0"
       style="fill-rule:evenodd"
       id="path31"
       d="m 195.26667,248.90001 c 2.59585,-1.40279 2.06486,-5.38068 0.76325,-7.90542 -1.61712,1.02053 -2.27766,6.67993 -0.76325,7.90542" />
    <path
       inkscape:connector-curvature="0"
       style="fill:#ffffff;fill-rule:evenodd"
       id="path33"
       d="m 252.82104,244.38242 c 0.3833,-0.8482 0.99014,-1.07089 1.06868,-2.41978 -2.57571,0.52481 -1.30094,1.20493 -1.06868,2.41978" />
    <path
       inkscape:connector-curvature="0"
       style="fill-rule:evenodd"
       id="path35"
       d="m 241.37166,244.8668 c 0.74311,-0.52764 1.22777,-0.35743 1.37344,-1.45172 5.34743,3.51052 3.37051,-6.87922 0.76392,-0.32198 -3.52759,-4.71333 -6.20667,-2.41411 -2.13736,1.7737" />
    <path
       inkscape:connector-curvature="0"
       style="fill-rule:evenodd"
       id="path37"
       d="m 236.18063,244.70511 c 1.46407,-5.29416 -6.19593,-2.29071 0,0" />
    <path
       inkscape:connector-curvature="0"
       style="fill-rule:evenodd"
       id="path39"
       d="m 212.36489,241.96264 c 4.82719,-5.36508 -4.4318,-4.9658 0,0" />
    <path
       inkscape:connector-curvature="0"
       style="fill-rule:evenodd"
       id="path41"
       d="m 192.06063,237.60675 c 1.38888,-1.70278 1.18481,-4.40412 -1.06868,-5.16225 -0.42694,2.39142 0.0107,4.22682 1.06868,5.16225" />
    <path
       inkscape:connector-curvature="0"
       style="fill-rule:evenodd"
       id="path43"
       d="m 201.37265,234.3799 c 3.31815,-10.63796 -10.71299,-29.47637 -16.63906,-36.45913 3.54974,7.78983 8.73472,15.80092 11.75414,23.55387 1.22845,3.15592 2.13401,11.34361 4.88492,12.90526" />
    <path
       inkscape:connector-curvature="0"
       style="fill-rule:evenodd"
       id="path45"
       d="m 212.05946,232.92888 c 4.16866,-3.71194 -0.75049,-22.83402 -2.59518,-27.42537 -1.16064,1.6503 -1.06331,15.70376 -0.61019,18.71359 0.10405,0.69785 2.35821,8.2813 3.20537,8.71178" />
    <path
       inkscape:connector-curvature="0"
       style="fill-rule:evenodd"
       id="path47"
       d="m 217.7083,232.60549 c 8.3004,-10.94008 -4.95071,-4.47645 0,0" />
    <path
       inkscape:connector-curvature="0"
       style="fill-rule:evenodd"
       id="path49"
       d="m 261.52354,226.63759 c -0.21481,-2.92047 -2.49918,-2.00135 0,0" />
    <path
       inkscape:connector-curvature="0"
       style="fill-rule:evenodd"
       id="path51"
       d="m 189.3124,227.28225 c 4.7849,-4.16015 -4.4996,-6.47355 0,0" />
    <path
       inkscape:connector-curvature="0"
       style="fill-rule:evenodd"
       id="path53"
       d="m 218.47087,222.60297 c 6.51815,-5.25019 -3.16643,-6.16364 0,0" />
    <path
       inkscape:connector-curvature="0"
       style="fill-rule:evenodd"
       id="path55"
       d="m 186.25874,220.34488 c 0.69478,-1.57867 -0.91899,-8.77206 -3.05299,-7.09906 -1.70439,1.33613 2.38104,6.92247 3.05299,7.09906" />
    <path
       inkscape:connector-curvature="0"
       style="fill-rule:evenodd"
       id="path57"
       d="m 216.79267,218.40878 c 0.52024,-0.77161 4.55532,-9.2295 1.37277,-8.71108 -2.19711,0.35744 -1.92993,7.8572 -1.37277,8.71108" />
    <path
       inkscape:connector-curvature="0"
       style="fill-rule:evenodd"
       id="path59"
       d="m 206.71673,218.73217 c 2.31861,-3.26656 1.49226,-13.62155 -1.52583,-15.48816 -0.0873,3.73038 -0.68739,13.38468 1.52583,15.48816" />
    <path
       inkscape:connector-curvature="0"
       style="fill-rule:evenodd"
       id="path61"
       d="m 180.45752,213.40823 c 2.20046,-3.07934 -0.24166,-7.96358 -3.66453,-8.71249 0.82971,2.90274 2.20248,7.04091 3.66453,8.71249" />
    <path
       inkscape:connector-curvature="0"
       style="fill-rule:evenodd"
       id="path63"
       d="m 106.26207,209.53601 c -0.74848,-2.13823 -0.63436,-1.81342 0,0" />
    <path
       inkscape:connector-curvature="0"
       style="fill-rule:evenodd"
       id="path65"
       d="m 174.19782,204.69574 c 0.16983,-1.62974 -1.61041,-6.10407 -3.66319,-5.32324 -2.69117,1.02479 2.6368,5.15303 3.66319,5.32324" />
    <path
       inkscape:connector-curvature="0"
       style="fill-rule:evenodd"
       id="path67"
       d="m 109.77355,207.5999 c 1.36807,-1.55598 2.18099,-3.87506 1.98498,-6.29129 -1.70841,1.3035 -2.78313,4.75375 -1.98498,6.29129" />
    <path
       inkscape:connector-curvature="0"
       style="fill-rule:evenodd"
       id="path69"
       d="m 289.46095,196.14636 c 4.95272,-3.40982 -3.94042,-3.97434 0,0" />
    <path
       inkscape:connector-curvature="0"
       style="fill-rule:evenodd"
       id="path71"
       d="m 285.33928,193.56488 c 0.76191,-1.6581 1.07472,-2.60275 -1.37411,-2.74175 -0.33229,2.41552 0.55582,2.13397 1.37411,2.74175" />
    <path
       inkscape:connector-curvature="0"
       style="fill-rule:evenodd"
       id="path73"
       d="m 162.90082,199.3725 c -0.4209,-1.73966 -0.38801,-1.6035 0,0" />
    <path
       inkscape:connector-curvature="0"
       style="fill-rule:evenodd"
       id="path75"
       d="m 178.32083,193.72587 c 0.30409,-2.10915 -2.20046,-3.01267 -4.42777,-3.06515 0.51554,2.13539 2.11386,3.17791 4.42777,3.06515" />
    <path
       inkscape:connector-curvature="0"
       style="fill-rule:evenodd"
       id="path77"
       d="m 288.85076,178.39941 c 1.38485,-0.18865 6.18854,-3.21834 2.74755,-3.22614 -2.64418,-0.006 -5.62937,1.86873 -2.74755,3.22614" />
    <path
       inkscape:connector-curvature="0"
       style="fill-rule:evenodd"
       id="path79"
       d="m 285.79709,176.30231 c 4.06999,-4.99275 -8.99383,1.12124 0,0" />
    <path
       inkscape:connector-curvature="0"
       style="fill-rule:evenodd"
       id="path81"
       d="m 281.36999,173.88253 c 1.85072,-3.57861 -5.77034,-1.70491 0,0" />
    <g
       transform="matrix(0.67128192,0,0,0.70919739,70.071923,41.182472)"
       inkscape:export-ydpi="90"
       inkscape:export-xdpi="90"
       inkscape:export-filename="/home/smueller/Dropbox/Research/PEBL/dccs/rabbitred.png"
       style="fill:#d40000"
       id="g3063">
      <path
         inkscape:connector-curvature="0"
         d="m 284.066,351.808 c 5.924,-2.447 13.481,-2.838 20.012,-2.502 -1.848,-2.896 -20.961,-14.09 -2.729,-7.507 2.548,-1.83 0.21,-2.061 5.004,-2.275 -6.193,-10.219 -22.648,-4.047 -29.339,-11.828 -2.689,-3.128 -1.657,-12.343 -4.32,-16.607 -4.053,-6.488 -4.929,-13.387 -3.412,-21.155 -4.979,0.543 -5.078,-4.335 -2.5,-7.961 2.47,-3.475 10.521,-2.452 12.963,-8.417 -10.486,1.218 9.638,-15.687 5.912,-1.592 -1.654,6.256 -20.278,20.6 -12.735,31.619 5.357,7.826 11.336,-19.865 13.19,-21.61 0.047,-0.044 6.409,1.78 9.893,-1.706 2.551,-2.553 7.848,-8.886 8.756,-13.08 -11.01,1.766 1.334,-5.029 2.729,-9.781 -7.536,-1.171 1.219,-3.436 3.866,-6.143 3.214,-3.286 1.616,-4.122 5.117,-7.619 3.999,-3.996 11.315,-10.339 14.214,-14.447 5.753,-8.154 -1.996,-4.886 -0.228,-11.146 1.928,-6.823 4.14,-1.576 8.869,-1.364 2.575,0.115 -0.789,1.961 3.639,0.911 4.022,-0.954 9.046,-5.604 11.145,-8.872 12.75,-19.862 -14.603,-6.604 -22.288,-15.242 9.733,-3.861 13.007,4.968 23.652,-1.592 1.048,-0.646 1.397,-5.044 5.23,-6.37 3.121,-1.079 10.538,0.669 16.147,-0.91 0,0 -0.021,-0.67 0,-0.683 -8.287,-0.041 -17.62,-4.643 -23.651,-9.554 9.962,-2.131 21.223,6.813 32.749,4.891 9.36,-1.561 13.846,-14.028 19.331,-14.445 2.538,-20.041 -22.179,-39.914 -32.75,-54.595 C 365.79,100.862 360.475,96.926 348.881,93.62 338.492,90.657 327.954,90.71 320.339,82.247 313.228,74.343 309.11,67.409 307.034,57.224 305.649,50.43 304.535,43.461 301.348,37.433 296.698,28.635 288.156,19.889 280.083,14.117 272.746,8.87 264.499,-1.906 259.957,8.771 c -2.479,5.826 0.822,20.859 2.729,26.615 3.561,10.754 15.219,19.372 22.937,28.056 4.888,5.5 10.274,10.627 14.361,16.757 2.971,4.457 2.349,0.014 5.23,0.683 3.66,0.85 6.14,0.359 9.552,1.82 -6.2,5.063 13.173,12.165 -0.683,10.236 3.193,14.258 -2.335,0.207 -3.41,-0.91 -5.722,-5.941 -12.521,-8.14 -17.967,-15.014 -5.826,-7.354 -12.357,-14.226 -18.877,-20.928 -10.514,-10.808 -13.924,-13.76 -28.2,-15.468 -15.159,-1.813 -36.722,-9.791 -27.404,15.014 2.582,6.875 12.976,13.952 17.171,20.7 4.306,6.926 8.657,14.906 16.373,18.767 7.315,3.66 15.894,7.649 23.88,9.213 1.748,-9.613 7.925,11.774 13.646,13.649 1.374,0.45 9.503,-0.187 9.096,-0.91 2.643,4.697 -5.313,5.757 -8.187,5.687 -1.932,-0.047 -6.329,-4.51 -7.732,-3.867 -2.282,1.045 -1.595,5.687 -2.957,6.597 -2.418,1.615 -3.384,9.308 -3.411,-1.82 -0.005,-1.974 5.439,-11.76 0.683,-10.237 -6.981,2.235 -4.975,19.073 -5.23,24.34 -5.889,-3.027 0.717,-16.166 -4.094,-19.108 -3.459,-2.116 -16.672,4.161 -20.695,4.663 -7.819,0.976 -13.876,7.487 -20.469,8.53 -6.053,0.958 -11.735,-4.095 -18.421,-4.095 -16.39,0 -47.03,-0.59 -62.087,6.938 -15.046,7.523 -32.246,11.157 -46.849,19.222 -20.473,11.307 -32.311,30.768 -41.733,51.524 -9.857,21.716 -17.427,49.632 -19.335,73.472 -1.311,16.383 3.784,28.128 11.262,40.382 1.321,2.164 9.157,9.525 3.186,12.967 -3.747,2.16 -5.154,-6.001 -6.142,-8.189 -4.548,-10.072 -5.622,-17.579 -18.648,-14.559 -5.545,1.286 -19.872,6.794 -21.379,12.967 -1.036,4.245 0.667,3.061 4.549,5.686 1.158,0.783 6.351,0.434 6.369,0.455 0.387,0.449 0.485,4.686 -0.683,3.867 1.316,0.922 -1.357,3.477 2.956,4.096 2.352,0.337 6.054,-5.111 8.188,-4.322 4.404,1.63 -5.185,5.093 -4.321,8.416 1.575,6.059 10.088,-3.405 13.191,-4.551 -1.585,3.995 -8.622,7.32 -2.275,10.692 0.481,0.256 13.473,-2.913 15.692,-3.185 8.61,-1.054 16.313,-6.923 24.107,-7.961 7.051,-0.939 17.632,2.549 24.789,3.411 12.432,1.497 24.873,2.849 37.347,4.204 10.061,1.093 20.249,-2.593 27.355,-0.563 16.365,4.671 31.342,8.417 48.555,8.417 -1.271,-9.913 -13.695,-9.187 -17.739,-15.469 9.732,0.781 13.015,3.977 20.015,9.325 3.743,2.859 10.764,8.344 10.916,2.275 0.24,-9.574 -11.898,-6.265 -14.556,-9.325 -4.537,-5.228 8.668,-2.268 11.371,-1.366 1.495,0.498 10.609,15.211 12.509,10.01 1.013,-2.773 -10.816,-11.362 -12.395,-13.99 -1.291,-2.149 -14.061,-2.421 -16.716,-2.615 -5.219,-0.381 -24.58,4.474 -27.973,1.137 -0.209,-0.206 -0.736,-0.81 -0.91,-0.91 6.224,-2.026 11.255,-0.891 10.007,-9.099 -11.435,2.377 3.501,-7.424 4.094,-14.104 -2.222,0.529 -4.388,-0.792 -5.913,-0.684 3.116,-2.441 5.388,-14.732 5.913,-14.784 2.264,-0.223 3.04,13.101 2.956,15.923 -0.056,1.874 -3.424,16.587 -3.411,16.606 1.554,2.303 13.528,2.608 17.284,1.365 2.495,-0.826 0.708,-5.643 2.956,-5.916 2.857,-0.348 1.1,4.881 2.274,5.006 9.51,1.013 9.514,-2.854 12.736,-10.01 1.086,-2.411 5.186,-2.444 4.548,-5.687 -0.566,-2.878 -5.138,-3.398 -6.823,-5.915 -3.006,-4.487 -5.726,-14.63 -5.23,-20.018 1.638,-17.814 5.409,4.484 6.027,10.691 0.691,6.948 8.803,13.851 12.395,20.019 4.276,7.344 9.314,21.836 14.555,27.979 6.326,7.416 23.741,9.9 33.204,10.237"
         id="path5"
         style="fill:#d40000;fill-rule:evenodd" />
      <path
         inkscape:connector-curvature="0"
         d="m 326.821,346.803 c 9.928,-2.364 -12.513,-8.668 -11.371,-13.193 -2.03,-0.604 -5.078,-0.949 -7.733,-0.455 2.252,4.694 13.125,15.114 19.104,13.648"
         id="path7"
         style="fill:#d40000;fill-rule:evenodd" />
      <path
         inkscape:connector-curvature="0"
         d="m 297.256,329.288 c -0.595,-6.37 -6.782,-18.967 -11.599,-23.885 -7.474,-7.632 -6.761,4.233 -6.141,12.056 0.884,11.147 7.297,10.294 17.74,11.829"
         id="path9"
         style="fill:#d40000;fill-rule:evenodd" />
      <path
         inkscape:connector-curvature="0"
         d="m 398.005,179.833 c 5.726,-1.613 8.275,-5.72 7.051,-12.738 -0.007,0.013 -0.676,0.013 -0.683,0 -0.767,4.619 -5.451,9.026 -8.415,12.284 0.551,0.686 1.043,0.144 2.047,0.454"
         id="path83"
         style="fill:#d40000;fill-rule:evenodd" />
    </g>
    <path
       inkscape:connector-curvature="0"
       style="fill-rule:evenodd"
       id="path85"
       d="m 277.55308,171.46275 c 1.26671,-3.65663 -4.12368,-1.7425 0,0" />
    <path
       inkscape:connector-curvature="0"
       style="fill-rule:evenodd"
       id="path87"
       d="m 292.66767,168.88198 c 7.21359,-1.86448 -1.89503,-4.69489 0,0" />
    <path
       inkscape:connector-curvature="0"
       style="fill-rule:evenodd"
       id="path89"
       d="m 326.86411,165.65513 c 0.46654,-2.61978 -1.76077,-2.09568 0,0" />
    <path
       inkscape:connector-curvature="0"
       style="fill-rule:evenodd"
       id="path91"
       d="m 303.65924,166.62247 c 5.58036,-3.30982 -2.85228,-3.66513 0,0" />
    <path
       inkscape:connector-curvature="0"
       style="fill-rule:evenodd"
       id="path93"
       d="m 289.614,167.10686 c 4.19552,-4.77432 -7.65395,-1.0794 0,0" />
    <path
       inkscape:connector-curvature="0"
       style="fill-rule:evenodd"
       id="path95"
       d="m 274.65247,167.75223 c 0.85119,-3.41975 -3.74776,-1.89924 0,0" />
    <path
       inkscape:connector-curvature="0"
       style="fill-rule:evenodd"
       id="path97"
       d="m 261.37116,167.75223 c -0.0738,-1.33684 0.59945,-2.38787 -1.67955,-1.29074 0.39472,1.06663 1.04183,0.71558 1.67955,1.29074" />
    <path
       inkscape:connector-curvature="0"
       style="fill-rule:evenodd"
       id="path99"
       d="m 321.21594,164.36439 c 0.36988,-2.2127 -0.25643,-1.94178 0,0" />
    <path
       inkscape:connector-curvature="0"
       style="fill-rule:evenodd"
       id="path101"
       d="m 330.37558,163.23535 c -0.13559,-2.07511 -0.32758,-1.80562 0,0" />
    <path
       inkscape:connector-curvature="0"
       style="fill-rule:evenodd"
       id="path103"
       d="m 283.6604,165.65513 c -0.0275,-0.19716 0.54441,-0.83473 0.45782,-1.45173 -0.33766,0.0589 -0.72566,-0.006 -1.06868,0 -0.24435,1.01274 0.59475,1.34109 0.61086,1.45173" />
    <path
       inkscape:connector-curvature="0"
       style="fill-rule:evenodd"
       id="path105"
       d="m 272.05797,164.52538 c -0.49071,-2.96445 -3.28257,-1.20493 0,0" />
    <path
       inkscape:connector-curvature="0"
       style="fill-rule:evenodd"
       id="path107"
       d="m 325.64305,160.65387 c 2.02525,-2.6907 -0.40546,-2.87296 0,0" />
    <path
       inkscape:connector-curvature="0"
       style="fill-rule:evenodd"
       id="path109"
       d="m 321.97919,160.33118 c 0.0752,-2.4141 -0.13761,-1.5581 0,0" />
    <path
       inkscape:connector-curvature="0"
       style="fill-rule:evenodd"
       id="path111"
       d="m 258.77464,162.75097 c 0.34907,-2.72403 -1.75742,-2.44177 0,0" />
    <path
       inkscape:connector-curvature="0"
       style="fill-rule:evenodd"
       id="path113"
       d="m 340.14609,155.97529 c 1.79837,-2.9148 -1.70841,-7.27991 -5.3434,-5.48564 -3.34634,1.65243 4.121,4.45376 5.3434,5.48564" />
    <path
       inkscape:connector-curvature="0"
       style="fill-rule:evenodd"
       id="path115"
       d="m 257.09576,158.39507 c 0.52428,-4.07575 -3.23692,-1.59569 0,0" />
    <path
       inkscape:connector-curvature="0"
       style="fill-rule:evenodd"
       id="path117"
       d="m 255.56927,154.03918 c 3.85853,-5.11756 -4.27137,-2.81551 0,0" />
    <path
       inkscape:connector-curvature="0"
       style="fill-rule:evenodd"
       id="path119"
       d="m 331.59732,149.84499 c 8.66692,-4.2949 -5.3763,-3.69208 0,0" />
    <path
       inkscape:connector-curvature="0"
       style="fill-rule:evenodd"
       id="path121"
       d="m 298.0104,150.16768 c 1.88227,-0.47871 4.46067,-4.30767 1.06935,-3.87222 -1.45064,0.18652 -5.33333,3.39422 -1.06935,3.87222" />
    <path
       inkscape:connector-curvature="0"
       style="fill-rule:evenodd"
       id="path123"
       d="m 302.59055,149.68329 c 8.01712,-2.81196 -3.02479,-4.71829 0,0" />
    <path
       inkscape:connector-curvature="0"
       style="fill-rule:evenodd"
       id="path125"
       d="m 263.05004,150.16768 c -0.44842,-2.43752 -1.98901,-1.54676 0,0" />
    <path
       inkscape:connector-curvature="0"
       style="fill-rule:evenodd"
       id="path127"
       d="m 295.10979,148.23157 c 3.10736,-3.21764 -10.75327,-9.13872 -10.99224,-8.87278 -2.40521,2.66942 8.59778,9.03164 10.99224,8.87278" />
    <path
       inkscape:connector-curvature="0"
       style="fill-rule:evenodd"
       id="path129"
       d="m 261.37116,146.45716 c 0.70552,-1.75102 1.08949,-2.90063 -1.37411,-3.38785 -0.47594,2.38574 0.31751,2.56446 1.37411,3.38785" />
    <path
       inkscape:connector-curvature="0"
       style="fill-rule:evenodd"
       id="path131"
       d="m 253.43124,145.81178 c 4.99299,-7.79337 -5.55486,-2.69849 0,0" />
    <path
       inkscape:connector-curvature="0"
       style="fill-rule:evenodd"
       id="path133"
       d="m 300.91101,140.81052 c 2.08164,-0.49076 5.38435,-1.19571 7.17533,-2.42049 3.55712,-2.43255 1.99304,-0.13049 0.15305,-3.06515 -2.79857,-4.46298 -6.48727,-8.39122 -12.51873,-8.3891 -12.60668,0.005 -5.87641,14.37685 5.19035,13.87474" />
    <path
       inkscape:connector-curvature="0"
       style="fill-rule:evenodd"
       id="path135"
       d="m 228.54749,144.19836 c 0.16849,-0.71984 0.94046,-0.61133 0.61019,-2.09781 -2.89389,0.68509 -1.71311,0.89714 -0.61019,2.09781" />
    <path
       inkscape:connector-curvature="0"
       style="fill:#666666;fill-rule:evenodd"
       id="path137"
       d="m 299.99538,137.74537 c 0.0597,0.59005 -7.76002,-7.1324 -7.93858,-6.93737 -3.92297,4.28072 4.91714,7.4104 7.93858,6.93737" />
    <path
       inkscape:connector-curvature="0"
       style="fill-rule:evenodd"
       id="path139"
       d="m 258.01206,139.51978 c 5.7549,-6.29554 -4.92049,-4.88566 0,0" />
    <path
       inkscape:connector-curvature="0"
       style="fill-rule:evenodd"
       id="path141"
       d="m 316.63579,135.16389 c -0.56187,-2.72757 -3.97466,-9.72522 -6.56447,-10.97057 -4.27607,-2.05526 4.29083,9.94153 6.56447,10.97057" />
    <path
       inkscape:connector-curvature="0"
       style="fill-rule:evenodd"
       id="path143"
       d="m 224.88363,139.1971 c 7.92448,-3.91264 -5.95293,-2.07441 0,0" />
    <path
       inkscape:connector-curvature="0"
       style="fill:#ffffff;fill-rule:evenodd"
       id="path145"
       d="m 300.91101,133.87315 c 2.21724,-2.64318 -1.33854,-3.59066 -3.81691,-3.38783 -0.0557,2.38928 1.28886,3.51265 3.81691,3.38783" />
    <path
       inkscape:connector-curvature="0"
       style="fill-rule:evenodd"
       id="path147"
       d="m 274.34771,124.19332 c 1.14185,-0.80565 3.92767,-8.76285 1.22106,-9.51814 -2.48106,-0.69289 -1.73862,8.59193 -1.22106,9.51814" />
    <path
       inkscape:connector-curvature="0"
       style="fill-rule:evenodd"
       id="path149"
       d="m 308.3911,115.15956 c -0.94919,-1.31131 -7.59421,-7.52742 -10.68614,-5.96931 -2.26289,1.14039 8.52864,5.9374 10.68614,5.96931" />
    <path
       inkscape:connector-curvature="0"
       style="fill-rule:evenodd"
       id="path151"
       d="m 266.71456,116.77228 c 0.68471,-2.08717 -5.75355,-8.86001 -6.8699,-12.74428 -1.32041,-4.593473 -2.79051,-10.213863 -5.80121,-14.681097 -3.87464,-5.750172 -7.98625,-6.483482 -13.43504,-9.356441 -4.40562,-2.323331 -12.92553,-10.511724 -18.16757,-9.196163 -1.85409,0.465234 -3.69743,2.358082 -2.44213,5.162248 1.38016,3.082172 2.7442,-1.381516 4.57949,-1.451727 6.36308,-0.242545 13.8425,7.840177 16.33497,11.454247 2.57571,3.736052 4.66742,8.078468 6.25971,11.776932 -0.051,-0.161697 0,-0.215596 0.15238,-0.161697 0.78271,-4.435321 -2.11051,-9.050068 -3.66319,-12.905974 11.37487,1.260244 10.86738,20.036242 16.33498,27.425372 1.35733,1.8354 3.77193,4.32256 6.71751,4.67858" />
    <path
       inkscape:connector-curvature="0"
       style="fill-rule:evenodd"
       id="path153"
       d="m 272.05797,115.64323 c 4.18141,-5.60904 -4.69428,-4.88424 0,0" />
    <path
       inkscape:connector-curvature="0"
       style="fill-rule:evenodd"
       id="path155"
       d="m 287.17121,111.28734 c 1.15595,-2.70488 -2.35083,-1.85738 0,0" />
    <path
       inkscape:connector-curvature="0"
       style="fill-rule:evenodd"
       id="path157"
       d="m 269.46212,110.64197 c 3.90753,-4.46298 -4.07804,-2.49283 0,0" />
    <path
       inkscape:connector-curvature="0"
       style="fill-rule:evenodd"
       id="path159"
       d="m 250.22587,110.96466 c 0.82701,-1.35102 -8.89785,-6.65795 -10.99225,-8.3891 -5.07959,-4.199156 -8.534,-3.537475 -2.74755,1.29074 4.07334,3.39848 7.73182,5.78351 13.7398,7.09836" />
    <path
       inkscape:connector-curvature="0"
       style="fill-rule:evenodd"
       id="path161"
       d="m 267.93495,104.83436 c 0.90154,-3.20132 -2.36895,-2.19639 0,0" />
    <path
       inkscape:connector-curvature="0"
       style="fill-rule:evenodd"
       id="path163"
       d="m 252.97409,105.47973 c 2.78649,-3.22614 -1.82454,-2.5446 0,0" />
    <path
       inkscape:connector-curvature="0"
       style="fill-rule:evenodd"
       id="path165"
       d="m 249.76805,103.70531 c 2.1085,-1.48576 2.95297,-6.757939 -0.15305,-7.582026 -0.001,3.074371 -1.29423,6.413986 0.15305,7.582026" />
  </g>
</svg>
