<?xml version="1.0" encoding="UTF-8" standalone="no"?>
<!-- Generator: Adobe Illustrator 12.0.0, SVG Export Plug-In . SVG Version: 6.00 Build 51448)  -->

<svg
   xmlns:dc="http://purl.org/dc/elements/1.1/"
   xmlns:cc="http://creativecommons.org/ns#"
   xmlns:rdf="http://www.w3.org/1999/02/22-rdf-syntax-ns#"
   xmlns:svg="http://www.w3.org/2000/svg"
   xmlns="http://www.w3.org/2000/svg"
   xmlns:xlink="http://www.w3.org/1999/xlink"
   xmlns:sodipodi="http://sodipodi.sourceforge.net/DTD/sodipodi-0.dtd"
   xmlns:inkscape="http://www.inkscape.org/namespaces/inkscape"
   height="300"
   id="Layer_1"
   inkscape:version="0.48.3.1 r9886"
   sodipodi:docname="rabbit.svg"
   sodipodi:version="0.32"
   space="preserve"
   style="overflow:visible"
   version="1.1"
   viewBox="0 0 300 299.99999"
   width="300"
   inkscape:output_extension="org.inkscape.output.svg.inkscape"
   inkscape:export-filename="/home/smueller/Dropbox/Research/PEBL/dccs/rabbitrednoborder.png"
   inkscape:export-xdpi="90"
   inkscape:export-ydpi="90">
  <metadata
     id="metadata3">
    <rdf:RDF>
      <cc:Work
         rdf:about="">
        <dc:title></dc:title>
        <dc:description />
        <dc:subject>
          <rdf:Bag>
            <rdf:li>animal</rdf:li>
            <rdf:li>rabbit</rdf:li>
            <rdf:li>bunny</rdf:li>
            <rdf:li>mammal</rdf:li>
          </rdf:Bag>
        </dc:subject>
        <dc:publisher>
          <cc:Agent
             rdf:about="http://www.openclipart.org/">
            <dc:title>Open Clip Art Library</dc:title>
          </cc:Agent>
        </dc:publisher>
        <dc:creator>
          <cc:Agent>
            <dc:title>Architetto Francesco Rollandin</dc:title>
          </cc:Agent>
        </dc:creator>
        <dc:rights>
          <cc:Agent>
            <dc:title>Architetto Francesco Rollandin</dc:title>
          </cc:Agent>
        </dc:rights>
        <dc:date />
        <dc:format>image/svg+xml</dc:format>
        <dc:type
           rdf:resource="http://purl.org/dc/dcmitype/StillImage" />
        <cc:license
           rdf:resource="http://web.resource.org/cc/PublicDomain" />
        <dc:language>en</dc:language>
      </cc:Work>
      <cc:License
         rdf:about="http://web.resource.org/cc/PublicDomain">
        <cc:permits
           rdf:resource="http://web.resource.org/cc/Reproduction" />
        <cc:permits
           rdf:resource="http://web.resource.org/cc/Distribution" />
        <cc:permits
           rdf:resource="http://web.resource.org/cc/DerivativeWorks" />
      </cc:License>
    </rdf:RDF>
  </metadata>
  <defs
     id="defs168">
    <linearGradient
       gradientTransform="matrix(0.83639631,0,0,0.83237957,84.521394,274.16798)"
       gradientUnits="userSpaceOnUse"
       y2="267.00342"
       x2="556.15533"
       y1="695.07452"
       x1="20.223827"
       id="linearGradient3669"
       xlink:href="#linearGradient3663"
       inkscape:collect="always" />
    <inkscape:perspective
       id="perspective10"
       inkscape:persp3d-origin="372.04724 : 350.78739 : 1"
       inkscape:vp_z="744.09448 : 526.18109 : 1"
       inkscape:vp_y="0 : 1000 : 0"
       inkscape:vp_x="0 : 526.18109 : 1"
       sodipodi:type="inkscape:persp3d" />
    <linearGradient
       id="linearGradient3663">
      <stop
         id="stop3665"
         offset="0"
         style="stop-color:#000000;stop-opacity:1;" />
      <stop
         style="stop-color:#504416;stop-opacity:1"
         offset="0.30899459"
         id="stop3671" />
      <stop
         id="stop3667"
         offset="1"
         style="stop-color:#000000;stop-opacity:1" />
    </linearGradient>
    <linearGradient
       inkscape:collect="always"
       xlink:href="#linearGradient3663"
       id="linearGradient4070"
       gradientUnits="userSpaceOnUse"
       gradientTransform="matrix(0.83639631,0,0,0.83237957,84.521394,274.16798)"
       x1="20.223827"
       y1="695.07452"
       x2="556.15533"
       y2="267.00342" />
  </defs>
  <sodipodi:namedview
     bordercolor="#666666"
     borderopacity="1.0"
     id="base"
     inkscape:current-layer="Layer_1"
     inkscape:cx="176.7767"
     inkscape:cy="135.7645"
     inkscape:pageopacity="0.0"
     inkscape:pageshadow="2"
     inkscape:window-height="669"
     inkscape:window-width="1010"
     inkscape:window-x="518"
     inkscape:window-y="271"
     inkscape:zoom="1.1703065"
     pagecolor="#ffffff"
     showgrid="false"
     inkscape:window-maximized="0"
     fit-margin-top="0"
     fit-margin-left="0"
     fit-margin-right="0"
     fit-margin-bottom="0" />
  <rect
     style="fill:#ffffff;stroke:none;stroke-width:4.17763804999999966;stroke-linecap:round;stroke-linejoin:round;stroke-miterlimit:4;stroke-opacity:1;stroke-dasharray:none;stroke-dashoffset:0"
     id="rect3069"
     width="295.82236"
     height="295.82236"
     x="2.088819"
     y="2.0888145"
     ry="0" />
  <g
     transform="matrix(0.34592623,0,0,0.33626246,25.607961,-54.400896)"
     id="layer1"
     inkscape:label="Layer 1">
    <path
       sodipodi:nodetypes="ccccccccccccccccccccccccccccccccccccccccccccccccccccscccsccscc"
       id="rect2816"
       d="m 430.92015,232.86115 0,590.93747 -36.54007,0 c -11.54961,0 -21.01979,11.9513 -22.34746,27.44252 l 129.95508,15.71116 0,-8.81802 c 0,-17.27003 -10.03933,-34.33566 -22.50429,-34.33566 l -36.38324,0 0,-554.41682 c -3.93733,-12.28647 -7.99263,-24.42901 -12.18002,-36.52065 z m 19.23711,49.81271 0,52.49194 c 45.55778,-5.59165 86.93634,-23.29907 124.33555,-52.49194 l -124.33555,0 z m -26.2942,99.15722 c -25.72032,29.18765 -88.55031,59.09763 -109.51685,89.74092 22.85511,9.91597 85.66517,18.43313 109.51685,25.46561 l 0,-115.20653 z m -115.0841,98.01269 c -21.09284,31.60728 -39.6599,63.99147 -55.67264,97.15431 42.02176,20.86225 125.2377,36.72848 170.75674,47.47164 l 0,-116.74123 c -25.79049,-7.60418 -90.45849,-16.91054 -115.0841,-27.88472 z m 141.3783,43.49184 0,63.41692 c 12.34659,-3.50189 35.84084,-7.3815 47.92137,-11.65332 -11.14838,-17.61197 -34.62145,-34.88824 -47.92137,-51.7636 z m 53.35796,60.50359 c -13.852,5.04701 -39.15389,9.60182 -53.35796,13.63022 l 0,116.40307 c 31.03984,-6.99365 72.52899,-16.35437 101.94735,-28.04078 -12.46547,-35.2762 -28.67624,-69.26619 -48.58939,-101.99251 z m -254.5386,1.82083 c -13.61136,29.11346 -25.26543,58.82545 -34.94569,89.14265 53.79369,31.53403 150.01778,54.47621 209.83213,68.59328 l 0,-108.23536 C 376.85327,624.06506 292.25689,607.54523 248.97662,585.66003 z m -37.76853,98.16876 c -11.35226,37.19922 -19.76368,75.30231 -25.17029,114.32213 l 237.82526,0 0,-44.06409 C 363.00322,739.72233 265.83614,716.22117 211.20809,683.82879 z m 344.13755,11.3932 c -30.43963,12.29524 -73.00548,22.06378 -105.18838,29.31537 l 0,73.61356 128.37225,0 C 574.13664,762.70305 566.3714,728.39895 555.34564,695.22199 z M 39.59123,833.03283 c 0,0 75.93477,23.19036 83.43053,41.2288 l 532.10487,34.17959 c 2.94836,-14.7667 6.07703,-29.66531 12.04934,-43.67392 3.31122,-6.62004 12.41526,-17.27187 12.41526,-17.27187 0,0 -16.39241,6.80661 -21.82472,13.37009 -5.06886,6.12436 -11.24435,21.28486 -13.01641,28.37894 L 39.59123,833.03283 z m 90.40921,57.35615 c 10.13051,22.31621 23.24366,46.83927 36.80144,60.1654 17.21724,16.9231 64.9514,32.3068 64.9514,32.3068 l 356.04346,0 c 0,0 45.99574,-32.8637 60.42963,-56.26368 1.728,-2.80141 3.28828,-6.57085 4.65245,-10.63886 L 130.00044,890.38898 z"
       style="fill:url(#linearGradient4070);fill-opacity:1;stroke:none"
       inkscape:connector-curvature="0" />
  </g>
</svg>
